<?xml version="1.0" encoding="UTF-8"?>
<svg id="Layer_1" data-name="Layer 1" xmlns="http://www.w3.org/2000/svg" viewBox="0 0 1542.27 1261.27">
  <defs>
    <style>
      .cls-1 {
        fill: #005fff;
      }

      .cls-1, .cls-2 {
        stroke-width: 0px;
      }

      .cls-2 {
        fill: #629bfd;
      }
    </style>
  </defs>
  <path class="cls-2" d="M777.72,629.03h0c-12.08-11.78-12.32-31.12-.54-43.2L1358.71,0l174.34,170.05c12.08,11.78,12.32,31.12.54,43.2h0c-11.78,12.08-31.12,12.32-43.2.54l-130.61-127.39-538.87,542.09c-11.78,12.08-31.12,12.32-43.2.54Z"/>
  <path class="cls-1" d="M1257.76,273.75v493.69c0,272.72-220.97,493.83-493.69,493.83s-493.83-221.11-493.83-493.83v-219.05h1.35c149.94,0,271.52-121.58,271.52-271.59v-1.56l714.66-1.49Z"/>
  <path class="cls-2" d="M543.1,275.24l-272.51.57-.35.78v271.8C120.87,547.68,0,426.38,0,276.8S121.58,5.29,271.59,5.29s270.66,120.73,271.52,269.95Z"/>
</svg>